# xmcd CD database file
#
# Track frame offsets:
#	150
#	20348
#	36118
#	57140
#	91053
#	105675
#	125858
#	143595
#	157658
#	175363
#	193320
#	211335
#	231350
#
# Disc length: 3288 seconds
#
# Revision: 2
# Processed by: cddbd v1.5.1PL0 Copyright (c) Steve Scherf et al.
# Submitted via: CDex 1.51
#
DISCID=ad0cd60d
DTITLE=高嶋ちさ子 - Lovin' you
DYEAR=2001
DGENRE=Classical
TTITLE0=Without You
TTITLE1=Do You Know Where You're Going To
TTITLE2=I Need To Be In Love(青春の輝き)
TTITLE3=愛の香り〜Fragrance Of Love
TTITLE4=元気を出して
TTITLE5=オリビアを聴きながら
TTITLE6=Have You Never Been Mellow?(そよ風の誘惑)
TTITLE7=Lovin' You
TTITLE8=If We Hold On Together
TTITLE9=Killing Me Softly With His Song
TTITLE10=Plastic Soul
TTITLE11=Dancing Queen
TTITLE12=All At Once
EXTD=YEAR: 2001
EXTT0=
EXTT1=
EXTT2=
EXTT3=
EXTT4=
EXTT5=
EXTT6=
EXTT7=
EXTT8=
EXTT9=
EXTT10=
EXTT11=
EXTT12=
PLAYORDER=
